<?xml version="1.0" standalone="no"?>
<!DOCTYPE svg PUBLIC "-//W3C//DTD SVG 20010904//EN"
 "http://www.w3.org/TR/2001/REC-SVG-20010904/DTD/svg10.dtd">
<svg version="1.0" xmlns="http://www.w3.org/2000/svg"
 width="32.000000pt" height="35.000000pt" viewBox="0 0 32.000000 35.000000"
 preserveAspectRatio="xMidYMid meet">
<metadata>
Created by potrace 1.15, written by Peter Selinger 2001-2017
</metadata>
<g transform="translate(0.000000,35.000000) scale(0.100000,-0.100000)"
fill="#000000" stroke="none">
<path d="M70 340 c0 -5 -16 -10 -35 -10 l-35 0 0 -160 0 -160 160 0 160 0 0
160 0 160 -35 0 c-19 0 -35 5 -35 10 0 6 -7 10 -15 10 -8 0 -15 -4 -15 -10 0
-6 -27 -10 -60 -10 -33 0 -60 4 -60 10 0 6 -7 10 -15 10 -8 0 -15 -4 -15 -10z
m230 -205 l0 -105 -140 0 -140 0 0 105 0 105 140 0 140 0 0 -105z"/>
</g>
</svg>
